<svg xmlns="http://www.w3.org/2000/svg" width="28.189" height="28.189" viewBox="0 0 28.189 28.189"><defs><style>.a{fill:#fff;}</style></defs><path class="a" d="M212.4,209.7a2.7,2.7,0,1,1-2.7-2.7A2.7,2.7,0,0,1,212.4,209.7Zm0,0" transform="translate(-195.603 -195.603)"/><path class="a" d="M148.429,137.35a2.68,2.68,0,0,0-1.536-1.536,4.478,4.478,0,0,0-1.5-.279c-.854-.039-1.11-.047-3.27-.047s-2.417.008-3.27.047a4.481,4.481,0,0,0-1.5.279,2.681,2.681,0,0,0-1.536,1.536,4.479,4.479,0,0,0-.279,1.5c-.039.853-.047,1.109-.047,3.271s.008,2.417.047,3.271a4.478,4.478,0,0,0,.279,1.5,2.68,2.68,0,0,0,1.536,1.536,4.473,4.473,0,0,0,1.5.279c.853.039,1.109.047,3.27.047s2.417-.008,3.271-.047a4.473,4.473,0,0,0,1.5-.279,2.68,2.68,0,0,0,1.536-1.536,4.481,4.481,0,0,0,.279-1.5c.039-.854.047-1.11.047-3.271s-.008-2.417-.047-3.271A4.472,4.472,0,0,0,148.429,137.35Zm-6.309,8.929a4.156,4.156,0,1,1,4.156-4.156A4.156,4.156,0,0,1,142.12,146.28Zm4.32-7.5a.971.971,0,1,1,.971-.971A.971.971,0,0,1,146.44,138.775Zm0,0" transform="translate(-128.025 -128.029)"/><path class="a" d="M14.095,0A14.095,14.095,0,1,0,28.189,14.095,14.1,14.1,0,0,0,14.095,0Zm8.045,17.431a5.938,5.938,0,0,1-.376,1.965A4.138,4.138,0,0,1,19.4,21.763a5.942,5.942,0,0,1-1.964.376c-.863.039-1.139.049-3.337.049s-2.474-.009-3.337-.049a5.942,5.942,0,0,1-1.964-.376A4.138,4.138,0,0,1,6.426,19.4a5.937,5.937,0,0,1-.376-1.964C6.01,16.568,6,16.292,6,14.095s.009-2.474.049-3.337a5.939,5.939,0,0,1,.376-1.965A4.141,4.141,0,0,1,8.793,6.426a5.943,5.943,0,0,1,1.965-.376C11.621,6.011,11.9,6,14.095,6s2.474.009,3.337.049a5.945,5.945,0,0,1,1.965.376,4.139,4.139,0,0,1,2.367,2.367,5.937,5.937,0,0,1,.376,1.965c.039.863.049,1.139.049,3.337S22.179,16.568,22.139,17.431Zm0,0"/></svg>