<svg xmlns="http://www.w3.org/2000/svg" width="23.784" height="23.784" viewBox="0 0 23.784 23.784"><path d="M211.552,209.276A2.276,2.276,0,1,1,209.276,207,2.276,2.276,0,0,1,211.552,209.276Zm0,0" transform="translate(-197.384 -197.384)"/><path d="M146.406,137.06a2.261,2.261,0,0,0-1.3-1.3,3.778,3.778,0,0,0-1.268-.235c-.72-.033-.936-.04-2.759-.04s-2.039.007-2.759.04a3.781,3.781,0,0,0-1.268.235,2.262,2.262,0,0,0-1.3,1.3,3.779,3.779,0,0,0-.235,1.268c-.033.72-.04.936-.04,2.759s.007,2.039.04,2.759a3.777,3.777,0,0,0,.235,1.268,2.261,2.261,0,0,0,1.3,1.3,3.774,3.774,0,0,0,1.268.235c.72.033.936.04,2.759.04s2.04-.007,2.759-.04a3.774,3.774,0,0,0,1.268-.235,2.261,2.261,0,0,0,1.3-1.3,3.781,3.781,0,0,0,.235-1.268c.033-.72.04-.936.04-2.759s-.007-2.039-.04-2.759A3.773,3.773,0,0,0,146.406,137.06Zm-5.323,7.534a3.507,3.507,0,1,1,3.507-3.507A3.507,3.507,0,0,1,141.083,144.593Zm3.645-6.332a.819.819,0,1,1,.819-.819A.82.82,0,0,1,144.728,138.261Zm0,0" transform="translate(-129.191 -129.195)"/><path d="M11.892,0A11.892,11.892,0,1,0,23.784,11.892,11.893,11.893,0,0,0,11.892,0ZM18.68,14.707a5.01,5.01,0,0,1-.317,1.658,3.492,3.492,0,0,1-2,2,5.013,5.013,0,0,1-1.657.317c-.728.033-.961.041-2.815.041s-2.087-.008-2.816-.041a5.013,5.013,0,0,1-1.657-.317,3.492,3.492,0,0,1-2-2A5.009,5.009,0,0,1,5.1,14.708c-.034-.728-.041-.961-.041-2.816S5.071,9.8,5.1,9.077a5.011,5.011,0,0,1,.317-1.658,3.494,3.494,0,0,1,2-2A5.015,5.015,0,0,1,9.077,5.1c.728-.033.961-.041,2.815-.041s2.087.008,2.815.041a5.016,5.016,0,0,1,1.658.317,3.493,3.493,0,0,1,2,2,5.009,5.009,0,0,1,.318,1.658c.033.728.041.961.041,2.815S18.713,13.979,18.68,14.707Zm0,0"/></svg>