<svg xmlns="http://www.w3.org/2000/svg" width="23.379" height="23.379" viewBox="0 0 23.379 23.379"><path d="M11.69,0a11.69,11.69,0,1,0,11.69,11.69A11.691,11.691,0,0,0,11.69,0Zm-3.4,17.671H5.446V9.106H8.293ZM6.869,7.937H6.851a1.484,1.484,0,1,1,.037-2.959,1.484,1.484,0,1,1-.019,2.959Zm11.689,9.735H15.712V13.089c0-1.152-.412-1.937-1.442-1.937a1.558,1.558,0,0,0-1.461,1.041,1.95,1.95,0,0,0-.094.695v4.783H9.868s.037-7.762,0-8.565h2.847v1.213a2.826,2.826,0,0,1,2.566-1.414c1.873,0,3.278,1.224,3.278,3.855Zm0,0"/></svg>