<svg xmlns="http://www.w3.org/2000/svg" width="27.709" height="27.709" viewBox="0 0 27.709 27.709"><defs><style>.a{fill:#fff;}</style></defs><path class="a" d="M13.854,0A13.854,13.854,0,1,0,27.709,13.854,13.856,13.856,0,0,0,13.854,0ZM9.829,20.944H6.454V10.793H9.829ZM8.142,9.407H8.12A1.759,1.759,0,1,1,8.164,5.9a1.759,1.759,0,1,1-.022,3.508ZM22,20.944H18.621V15.513c0-1.365-.489-2.3-1.709-2.3a1.847,1.847,0,0,0-1.731,1.234,2.311,2.311,0,0,0-.111.823v5.669H11.7s.044-9.2,0-10.151H15.07V12.23a3.35,3.35,0,0,1,3.041-1.676c2.22,0,3.885,1.451,3.885,4.569Zm0,0"/></svg>